PathFileType	4	(X/Y/Z)	T1_P2_NoVision_NoMovement_3_0-734.trc
DataRate	CameraRate	NumFrames	NumMarkers	Units	OrigDataRate	OrigDataStartFrame	OrigNumFrames
60	60	5	27	m	60	0	734
Frame#	Time	RHip			RKnee			RAnkle			RBigToe			RSmallToe			RHeel			LHip			LKnee			LAnkle			LBigToe			LSmallToe			LHeel			Neck			Head			Nose			RShoulder			RElbow			RWrist			RThumb			RIndex			RPinky			LShoulder			LElbow			LWrist			LThumb			LIndex			LPinky		
		X1	Y1	Z1	X2	Y2	Z2	X3	Y3	Z3	X4	Y4	Z4	X5	Y5	Z5	X6	Y6	Z6	X7	Y7	Z7	X8	Y8	Z8	X9	Y9	Z9	X10	Y10	Z10	X11	Y11	Z11	X12	Y12	Z12	X13	Y13	Z13	X14	Y14	Z14	X15	Y15	Z15	X16	Y16	Z16	X17	Y17	Z17	X18	Y18	Z18	X19	Y19	Z19	X20	Y20	Z20	X21	Y21	Z21	X22	Y22	Z22	X23	Y23	Z23	X24	Y24	Z24	X25	Y25	Z25	X26	Y26	Z26	X27	Y27	Z27
1	0.0166666666666666	468.25082272891217	3634.2867441327558	528.869521641688	864.8528705950571	3688.540089998273	542.0531653822326	1260.8903908894677	3768.5281972677644	622.4390272398618	1325.87632454736	3626.1361481050176	569.1262895528598	1310.8951228027952	3675.2274242917783	521.4980836909575	1288.9753284166038	3753.25038332145	632.6739989644292	461.8149018833642	3513.8758846135397	720.8406547880467	860.4839235575266	3548.165664187288	737.4464633546393	1238.4540784205876	3597.708836097817	726.965454053257	1310.497648961851	3501.9048477049428	681.5884392881172	1270.735888348088	3441.9427782415896	703.3630477651028	1274.6730546354936	3617.789247498736	717.5149513371501	-118.01154679410865	3523.067599102026	622.5682823010793	-366.7010883795372	3470.002525481577	594.6940785066957	-225.2223347625131	3418.692524416568	567.277648105581	-31.509197583203168	3700.144494038682	517.1143636059517	208.3589299074091	3632.6063132729096	418.69930338983016	374.2221994822001	3479.2803808539124	505.27529888228247	437.8583410362648	3432.965696431254	572.6421700172876	447.2353336280919	3420.608961590232	586.5350801738841	472.0269519910007	3439.9952471158904	579.7415161192307	-29.982501095665842	3504.4678216518673	783.3731806793187	224.30242218507158	3407.40886608235	760.6868720599803	380.83099732139834	3404.2922697264416	602.6010046113813	423.4143348721056	3418.163524061648	509.25243169671404	451.1579556232563	3445.6020311827533	519.706379234361	486.1290444359777	3441.096251417671	579.8962271173114
2	0.0333333333333333	467.8366914387174	3635.5517248571396	529.9324924789616	863.3333992715136	3687.996888809329	541.687944247048	1255.2780408183112	3767.711123120199	622.4894001097578	1328.9814681643486	3634.39845827321	571.8529964368984	1310.0988750215022	3675.485772770934	521.2143581441236	1289.6572016930036	3753.3084337094215	630.8593352594437	460.8092583403602	3517.5000672389424	723.4664532654072	860.0505745443022	3550.6925121820077	738.3251010325988	1231.0735781407025	3598.2179371766633	727.2755251060645	1306.3002518838443	3491.9117826941924	676.3851859524844	1274.1503545855567	3449.964051009365	711.0637077301036	1271.2057072352459	3616.6814359756477	716.5292221951239	-118.16601412950511	3522.5923605617854	622.4561985673995	-365.99029400123186	3469.4572839184375	594.4202609624755	-225.24676787340275	3418.9445162360526	567.4987912785554	-31.506282178793214	3695.0893757900385	516.0384933691212	208.48222427227262	3632.2937517995642	418.72395759843306	373.7189392768496	3480.5467103837054	502.317468418193	434.37186216342025	3416.3489035400935	558.9053830435932	450.7470853503438	3438.8580005633453	591.429757840412	476.3182996042718	3459.6027966242887	586.5059438330888	-30.24587069832164	3498.888531864334	778.1094637894439	225.78126661210473	3405.8591210737686	759.6662445423815	380.1320044886598	3403.840128389208	602.3843678617343	425.9827993135602	3414.208105337324	509.448679123691	454.9295499453096	3442.5388060422883	525.1225807482276	480.9569245151043	3431.25189200924	577.1490726231387
3	0.05	468.1205653790283	3637.9932299009383	531.9743785272015	863.8345675518563	3688.274600880161	541.8580926753023	1253.6456222826407	3768.553671675356	623.0528153031188	1330.1276410696664	3641.4901151562026	574.036357329551	1309.1989492490256	3676.695362584196	521.1944033985629	1288.9589330119354	3751.092983268057	629.4410496264468	460.0424865872692	3521.4812442749558	726.3702772279405	860.28659395101	3553.4957024923415	738.6218656431797	1225.7459859702485	3598.6320887056436	727.7446361993087	1304.0511365896318	3487.589849475652	673.7045107404842	1275.1113125240333	3454.2189459405035	715.6016426775033	1269.4060657322996	3616.8392484844935	716.4783891055963	-118.14462896976838	3522.223520397726	622.3971696303573	-364.8861316710295	3468.616935897134	593.9591122205766	-225.2427153280809	3418.649351953509	567.2377258565447	-31.385722657472343	3694.9403948821027	516.0618587883362	208.54787180847987	3631.93328072194	418.69726105812293	372.93875146683905	3481.025813043975	500.42500966539694	433.3245264722983	3412.1197107267844	553.562408160416	453.29933473911433	3454.5260318032124	595.6812963164587	478.99076830444284	3471.927202801988	591.2854183261309	-30.357722372088883	3496.3522091170744	775.6820769692462	226.88946940454974	3404.667196995375	758.8872399004634	379.1984278192291	3404.9464016700235	602.5826840218333	428.06931346911733	3415.232351626816	510.5531854910587	456.96814358510386	3443.2108968615203	528.7274877363366	477.4516948489962	3426.94732071615	576.5226480336
4	0.0666666666666666	469.43338282504885	3641.2165455353716	534.6580744691657	866.3357164523541	3689.3261032609	542.5373380575155	1255.3966962380746	3770.9895173197183	624.0668163293906	1329.3715823190287	3644.801483951386	574.8270047108351	1308.8962886991812	3678.8238081088066	521.5869130660564	1286.2845314119625	3745.9524445398283	628.1733571035329	459.5296303881484	3523.918429994145	727.9917945745964	860.9655729078648	3555.734995190048	738.1477034527338	1222.7263592881015	3599.268707273159	728.556813870352	1304.0136753762931	3489.731195885218	673.5672778438943	1273.7549718844593	3454.5589933991937	716.7372216158246	1269.5413952673941	3618.678373981251	717.631578248941	-117.65370023233675	3522.7900929563048	622.6548497867695	-363.9075543608725	3467.916244678774	593.5503753884174	-225.1914377429904	3417.2217906644883	566.0321204259707	-31.332404792260952	3698.049094998629	516.7951176930577	208.59761362702739	3632.128661542537	418.74331441558826	372.03242310082913	3480.792693721799	499.73537621234124	434.95739318462734	3422.2078246613396	556.6879365979988	455.51092990790664	3468.1681511386414	599.5136510787482	479.8243682052187	3475.649212224714	592.9389410100302	-30.29219573906135	3497.325302537824	776.5335537483344	227.75763439215746	3403.559436745268	758.2286165525595	378.6043745010392	3408.957206208993	603.5934900153912	429.5685300620247	3421.403869728811	512.473726095816	457.6052972753182	3448.9528465193143	530.4985502432198	476.31440194257004	3429.1360433989435	578.2357306620164
5	0.0833333333333333	470.87392126757936	3643.9100941290935	537.0111305364661	868.8198383849119	3690.1835794884178	543.180479706658	1257.5495348083366	3773.2921555560424	624.9272187289412	1327.9928539200264	3642.054520129452	573.1960276434303	1309.8250453523015	3679.9817477654155	522.0293834229939	1282.912075750017	3740.187399405098	626.8071234706006	458.96416348430665	3523.2072606062093	727.0730352740788	860.870452737352	3556.510631534634	737.340799785723	1221.8926643380446	3600.7512354117675	729.5909949997651	1304.9120351690578	3494.1325798470643	673.9686826307535	1272.0123462063689	3453.342273379555	716.255159096298	1270.543685859877	3621.3131749776617	719.331665904884	-116.50171947852145	3525.9114316934933	623.6942545973894	-363.87947365117395	3467.9996047832037	593.5742859375737	-225.09151337941728	3414.951115299356	564.2114900044653	-31.92520912183339	3700.374217432398	517.3084227222815	208.68249750124008	3634.4778841907814	419.2463678107572	371.1697954976414	3480.2706110466142	499.659051870255	437.5551970265413	3438.3313734518483	562.2484654987147	458.56823586875134	3481.380730261547	603.416566235014	480.2677464842503	3476.288040589561	592.4962605086668	-30.11710640897858	3500.391939591499	779.361806820759	228.43210791029458	3402.470751213549	757.6516020722685	378.9871881076848	3415.0312550929384	605.224085360644	430.69936721717477	3430.1091270084344	514.5290751554126	458.2397604660018	3457.262563020387	531.3219196106911	477.03508083862084	3434.151864592038	580.2477833390685
